<svg width="254" height="58" viewBox="0 0 254 58" fill="none" xmlns="http://www.w3.org/2000/svg">
<path d="M77.5312 35.0625C76.5781 35.0625 76.1016 36.4375 76.1016 39.1875C76.1016 40.1562 76.3281 41.1016 76.7812 42.0234L77.4141 43.1016C77.6328 43.4922 77.7422 43.7734 77.7422 43.9453C77.7422 44.5078 76.1719 44.7891 73.0312 44.7891C69.8906 44.7891 68.3203 44.5234 68.3203 43.9922C68.3203 43.8516 68.5781 43.4297 69.0938 42.7266C69.625 42.0078 70.0078 41.1719 70.2422 40.2188C70.4922 39.25 70.6172 37.0078 70.6172 33.4922L70.6406 32.6016C70.6719 31.8047 70.6875 31.2109 70.6875 30.8203L70.7344 29.0391L70.7578 27.2344V23.6016C70.7578 19.0859 70.6719 16.4219 70.5 15.6094C70.3438 14.7813 70.0547 14.1562 69.6328 13.7344L69.1172 13.3359L68.5547 12.9844C68.1016 12.6562 67.875 12.3516 67.875 12.0703C67.875 11.7734 68.0625 11.5156 68.4375 11.2969C69.5 10.6875 71.1406 10.3828 73.3594 10.3828H74.1562C75.0469 10.3828 75.6016 11.0156 75.8203 12.2812C75.8984 12.75 75.9375 16.25 75.9375 22.7812L75.9141 25.4766C75.9141 27.6172 75.9219 28.7578 75.9375 28.8984C76.1094 30.3828 76.5156 31.125 77.1562 31.125C77.7969 31.125 78.8984 30.2812 80.4609 28.5938C82.0234 26.8906 82.8047 25.6797 82.8047 24.9609L82.7344 24.1172C82.7344 23.5859 82.9375 23.2109 83.3438 22.9922C83.7656 22.7734 84.6328 22.6641 85.9453 22.6641C88.9297 22.6641 90.4219 22.9844 90.4219 23.625C90.4219 23.6406 89.0391 24.7578 86.2734 26.9766C83.5078 29.1953 82.125 30.7812 82.125 31.7344C82.125 32.6875 84.0234 35.3828 87.8203 39.8203C88.6484 40.7891 89.5547 41.625 90.5391 42.3281C91.5391 43.0312 92.0391 43.5 92.0391 43.7344C92.0391 44.5 90.8828 44.8828 88.5703 44.8828H86.8594C85.3594 44.8828 84.2812 44.4531 83.625 43.5938L82.6875 41.3203C82.2969 40.3828 81.6484 39.2734 80.7422 37.9922C79.3516 36.0391 78.2812 35.0625 77.5312 35.0625ZM109.711 29.7656V29.0391C109.711 27.8828 109.297 26.8438 108.469 25.9219C107.641 24.9844 106.625 24.5156 105.422 24.5156H104.977C104.758 24.5469 104.609 24.5625 104.531 24.5625C103.438 24.5625 102.398 25.1875 101.414 26.4375C100.445 27.6875 99.9609 29.0234 99.9609 30.4453V30.75C99.9609 31.25 100.258 31.5 100.852 31.5C101.086 31.5469 101.211 31.5703 101.227 31.5703L101.766 31.5938H101.906L102.07 31.5703L106.594 31.3125L107.438 31.2188C108.953 31.2188 109.711 30.7344 109.711 29.7656ZM99.9609 35.9766C99.9609 37.7578 100.633 39.25 101.977 40.4531C103.32 41.6562 105.023 42.2578 107.086 42.2578C107.914 42.2578 108.664 42.1406 109.336 41.9062C110.023 41.6562 110.766 41.3594 111.562 41.0156C112.375 40.6719 112.883 40.5 113.086 40.5C113.711 40.5 114.023 40.8359 114.023 41.5078C114.023 42.4141 112.867 43.3828 110.555 44.4141C109.055 45.0859 107.445 45.4219 105.727 45.4219H105.211C102.273 45.4219 99.8359 44.5312 97.8984 42.75C96.8516 41.7812 96.0391 40.5469 95.4609 39.0469C94.8828 37.5312 94.5938 35.9062 94.5938 34.1719L94.6172 33.6328V33.0938C94.6172 31.5938 94.9609 30.1172 95.6484 28.6641C96.3516 27.2109 97.1875 26.0156 98.1562 25.0781C100.203 23.1094 102.633 22.1172 105.445 22.1016C109.695 22.1016 112.523 23.7578 113.93 27.0703C114.367 28.1172 114.586 29.0781 114.586 29.9531V30.4219C114.586 31.5 114.141 32.2266 113.25 32.6016C112.359 32.9609 110.258 33.2578 106.945 33.4922C103.633 33.7266 101.836 33.8828 101.555 33.9609C100.492 34.2266 99.9609 34.8984 99.9609 35.9766ZM130.594 44.0859C130.594 44.6953 129.18 45 126.352 45H123.867L122.883 44.9531L121.406 44.9297C119.75 44.9297 118.922 44.6328 118.922 44.0391C118.922 43.6172 119.289 43.1719 120.023 42.7031C120.773 42.2188 121.273 41.6016 121.523 40.8516C121.789 40.0859 121.922 37.8438 121.922 34.125C121.922 30.4062 121.797 28.1484 121.547 27.3516C121.312 26.5547 120.938 25.9844 120.422 25.6406C119.5 25.0312 119.039 24.5859 119.039 24.3047C119.039 24.0234 119.203 23.7734 119.531 23.5547C120.5 22.8984 122.141 22.5703 124.453 22.5703H124.898C125.789 22.5703 126.422 23.0234 126.797 23.9297C127.172 24.8203 127.477 25.2656 127.711 25.2656C127.945 25.2656 128.344 25.0469 128.906 24.6094C129.484 24.1719 130.172 23.7344 130.969 23.2969C131.781 22.8594 132.68 22.6406 133.664 22.6406C134.648 22.6406 135.398 22.8984 135.914 23.4141C136.445 23.9141 136.711 24.5625 136.711 25.3594C136.695 26.1719 136.484 26.7812 136.078 27.1875C135.672 27.5938 135.234 27.7969 134.766 27.7969C134.297 27.7969 133.68 27.6094 132.914 27.2344C132.148 26.8438 131.508 26.6484 130.992 26.6484C130.477 26.6484 129.914 26.8672 129.305 27.3047C128.695 27.7266 128.172 28.4922 127.734 29.6016C127.312 30.6953 127.102 32.5781 127.102 35.25C127.102 37.9062 127.289 39.625 127.664 40.4062C128.039 41.1719 128.617 41.875 129.398 42.5156C130.195 43.1562 130.594 43.6797 130.594 44.0859ZM143.109 44.8125C140.906 44.8125 139.805 44.5 139.805 43.875C139.805 43.3594 140.094 42.9375 140.672 42.6094C141.719 42.0156 142.328 41.4844 142.5 41.0156C142.672 40.5312 142.758 38.2734 142.758 34.2422C142.758 30.1953 142.633 27.8281 142.383 27.1406C142.148 26.4375 141.711 25.8594 141.07 25.4062C140.43 24.9531 140.109 24.5859 140.109 24.3047C140.109 24.0234 140.32 23.7578 140.742 23.5078C141.727 22.9297 143.289 22.6406 145.43 22.6406C146.07 22.6406 146.57 22.8594 146.93 23.2969C147.055 23.4531 147.227 23.7969 147.445 24.3281C147.68 24.8438 147.836 25.1016 147.914 25.1016C148.211 25.0859 148.672 24.875 149.297 24.4688C151.453 23.0156 153.406 22.2891 155.156 22.2891H155.203H155.953C157.219 22.2891 158.359 22.6016 159.375 23.2266C160.391 23.8516 161.172 24.7891 161.719 26.0391C162.281 27.2891 162.562 30.0156 162.562 34.2188C162.562 38.4062 162.648 40.75 162.82 41.25C163.008 41.7344 163.516 42.1875 164.344 42.6094C165.188 43.0312 165.609 43.4453 165.609 43.8516C165.609 44.5547 163.391 44.9062 158.953 44.9062H158.25C156.844 44.9062 156.141 44.5703 156.141 43.8984C156.141 43.7578 156.312 43.4219 156.656 42.8906C157 42.3438 157.234 41.7422 157.359 41.0859C157.484 40.4297 157.547 38.2734 157.547 34.6172C157.547 30.9453 157.32 28.5859 156.867 27.5391C156.242 26.1016 155.203 25.3828 153.75 25.3828C152.688 25.3828 151.656 25.6328 150.656 26.1328C149.672 26.6172 148.953 27.3125 148.5 28.2188C148.062 29.1094 147.844 31.2578 147.844 34.6641C147.844 38.0547 147.938 40.1094 148.125 40.8281C148.312 41.5312 148.539 42.1016 148.805 42.5391L149.672 43.9453C149.672 44.5547 148.445 44.8594 145.992 44.8594L144.562 44.8125H143.109Z" fill="white"/>
<path d="M186.188 28.9219C185.531 28.9219 184.617 28.2422 183.445 26.8828C182.289 25.5234 180.945 24.8438 179.414 24.8438C177.898 24.8438 176.625 25.6016 175.594 27.1172C174.562 28.6172 174.047 30.75 174.047 33.5156C174.047 36.2812 174.68 38.4453 175.945 40.0078C177.227 41.5547 178.891 42.3281 180.938 42.3281C182.062 42.3281 183 42.1875 183.75 41.9062C184.516 41.625 185.219 41.3281 185.859 41.0156C186.516 40.6875 186.977 40.5234 187.242 40.5234C187.695 40.5234 187.922 40.8203 187.922 41.4141C187.922 42.3203 187.008 43.2188 185.18 44.1094C183.352 45 181.578 45.4453 179.859 45.4453C176.516 45.4453 173.828 44.3984 171.797 42.3047C170.969 41.4453 170.273 40.3438 169.711 39C169.148 37.6406 168.867 36.1875 168.867 34.6406V33.4922C168.867 33.4609 168.867 33.4219 168.867 33.375C168.867 33.3438 168.867 33.3125 168.867 33.2812C168.867 31.9219 169.172 30.5156 169.781 29.0625C170.984 26.2188 172.922 24.25 175.594 23.1562C177.141 22.5312 178.68 22.2188 180.211 22.2188H180.75C182.859 22.2188 184.648 22.5859 186.117 23.3203C187.305 23.9141 187.898 24.9062 187.898 26.2969C187.898 27.2188 187.711 27.8906 187.336 28.3125C186.977 28.7188 186.594 28.9219 186.188 28.9219ZM208.852 40.6172C208.977 40.0078 209.039 37.9219 209.039 34.3594C209.039 30.7969 208.766 28.4688 208.219 27.375C207.672 26.2812 206.656 25.7344 205.172 25.7344C204.281 25.7344 203.359 26.0859 202.406 26.7891C201.453 27.4766 200.82 28.2422 200.508 29.0859C200.195 29.9297 200.039 31.8984 200.039 34.9922C200.039 38.0703 200.062 39.9688 200.109 40.6875C200.172 41.4062 200.289 41.9688 200.461 42.375L200.766 42.9609C201.016 43.4453 201.141 43.7969 201.141 44.0156C201.141 44.5938 199.945 44.8828 197.555 44.8828C195.164 44.8828 193.609 44.6406 192.891 44.1562L192.469 43.7109C192.469 43.2734 192.625 42.8984 192.938 42.5859C193.875 41.6328 194.43 40.9062 194.602 40.4062C194.773 39.9062 194.859 37.6953 194.859 33.7734C194.859 29.8359 194.523 27.2656 193.852 26.0625L193.359 25.4297C192.953 24.9141 192.75 24.5234 192.75 24.2578C192.75 23.9766 193.039 23.6562 193.617 23.2969C194.211 22.9219 195.125 22.7344 196.359 22.7344C197.609 22.7344 198.547 23.0703 199.172 23.7422C199.797 24.3984 200.242 24.7266 200.508 24.7266L201.211 24.3984L202.992 23.3438C204.445 22.5781 205.922 22.1953 207.422 22.1953C208.922 22.1953 210.352 22.6562 211.711 23.5781C213.07 24.4844 213.922 24.9375 214.266 24.9375L215.062 24.5625L215.93 24.0469C216.664 23.6094 217.453 23.2188 218.297 22.875C219.109 22.5312 220.188 22.3594 221.531 22.3594C224.094 22.3594 225.906 23.4219 226.969 25.5469C227.75 27.1094 228.141 30.7656 228.141 36.5156C228.141 38.9844 228.219 40.4219 228.375 40.8281C228.531 41.2188 228.953 41.6953 229.641 42.2578C230.328 42.8203 230.672 43.1484 230.672 43.2422V43.8047L230.227 44.2266C229.477 44.6797 227.57 44.9062 224.508 44.9062C223.039 44.9062 222.305 44.5469 222.305 43.8281C222.305 43.75 222.406 43.3984 222.609 42.7734C222.828 42.1484 222.953 41.6484 222.984 41.2734C223.031 40.8828 223.055 38.8906 223.055 35.2969C223.055 31.7031 222.875 29.4531 222.516 28.5469C222.172 27.625 221.734 26.9219 221.203 26.4375C220.688 25.9375 219.898 25.6875 218.836 25.6875C217.773 25.6875 216.875 25.9766 216.141 26.5547C215.406 27.1328 214.891 27.7812 214.594 28.5C214.297 29.2031 214.148 31.3438 214.148 34.9219C214.148 38.5 214.258 40.5703 214.477 41.1328C214.695 41.6797 215.102 42.2188 215.695 42.75C216.305 43.2812 216.609 43.6328 216.609 43.8047C216.609 44.5859 215.242 44.9766 212.508 44.9766H209.227C207.586 44.9766 206.766 44.7422 206.766 44.2734C206.766 43.7891 206.969 43.3281 207.375 42.8906C208.25 41.9688 208.742 41.2109 208.852 40.6172ZM249.773 34.4766C251.008 35.6484 251.625 37.1328 251.625 38.9297C251.625 40.7109 250.891 42.2422 249.422 43.5234C247.953 44.7891 245.922 45.4219 243.328 45.4219H242.695C239.742 45.4219 237.492 45.0547 235.945 44.3203C235.086 43.9141 234.656 43.0078 234.656 41.6016V41.0156C234.656 39.2188 234.992 38.3203 235.664 38.3203C236.227 38.3203 236.891 38.8516 237.656 39.9141C238.422 40.9609 239.062 41.6641 239.578 42.0234C240.578 42.7109 241.75 43.0547 243.094 43.0547C244.453 43.0547 245.453 42.7734 246.094 42.2109C246.734 41.6328 247.055 40.875 247.055 39.9375C247.055 39 246.508 38.1328 245.414 37.3359C244.836 36.9141 243.484 36.25 241.359 35.3438C239.25 34.4375 237.672 33.4922 236.625 32.5078C235.578 31.5078 235.055 30.1016 235.055 28.2891C235.055 26.4766 235.812 25.0078 237.328 23.8828C238.844 22.7422 240.711 22.1719 242.93 22.1719H243.562C246.469 22.1719 248.508 22.5156 249.68 23.2031C250.289 23.5625 250.594 24.5625 250.594 26.2031C250.594 27.8438 250.203 28.6641 249.422 28.6641C248.984 28.6641 248.383 28.1797 247.617 27.2109C246.867 26.2266 246.18 25.5312 245.555 25.125C244.93 24.7031 244.062 24.4922 242.953 24.4922C241.859 24.4922 240.992 24.7422 240.352 25.2422C239.711 25.7422 239.391 26.4688 239.391 27.4219C239.391 28.3594 239.977 29.2031 241.148 29.9531C241.445 30.1562 242.742 30.7578 245.039 31.7578C247.336 32.7578 248.914 33.6641 249.773 34.4766Z" fill="white" fill-opacity="0.4"/>
<mask id="mask0_62_22" style="mask-type:alpha" maskUnits="userSpaceOnUse" x="0" y="3" width="51" height="51">
<path d="M0 15.8571C0 8.75634 5.75634 3 12.8571 3H38.1429C45.2437 3 51 8.75634 51 15.8571V41.1429C51 48.2437 45.2437 54 38.1429 54H12.8571C5.75634 54 0 48.2437 0 41.1429V15.8571Z" fill="#323234"/>
</mask>
<g mask="url(#mask0_62_22)">
<path d="M0 15.8571C0 8.75634 5.75634 3 12.8571 3H38.1429C45.2437 3 51 8.75634 51 15.8571V41.1429C51 48.2437 45.2437 54 38.1429 54H12.8571C5.75634 54 0 48.2437 0 41.1429V15.8571Z" fill="#323234"/>
<path d="M22.3593 30.7238C21.1253 30.7238 20.5082 32.6027 20.5082 36.3604C20.5082 37.6842 20.8016 38.9759 21.3883 40.2356L22.2076 41.7089C22.4908 42.2426 22.6324 42.6269 22.6324 42.8618C22.6324 43.6304 20.5993 44.0148 16.5331 44.0148C12.4668 44.0148 10.4337 43.6518 10.4337 42.9259C10.4337 42.7337 10.7675 42.1572 11.4351 41.1964C12.1229 40.2143 12.6185 39.072 12.922 37.7696C13.2457 36.4458 13.4075 33.382 13.4075 28.578L13.4379 27.361C13.4783 26.2721 13.4985 25.4608 13.4985 24.927L13.5592 22.493L13.5896 20.027V15.0629C13.5896 8.89247 13.4783 5.25214 13.2558 4.14189C13.0535 3.01029 12.6792 2.15625 12.133 1.57977L11.4654 1.03533L10.7372 0.55493C10.1505 0.106561 9.85715 -0.309782 9.85715 -0.694099C9.85715 -1.09977 10.0999 -1.45206 10.5854 -1.75097C11.9611 -2.58366 14.0852 -3 16.9579 -3H17.9896C19.1427 -3 19.8609 -2.13529 20.1441 -0.405862C20.2453 0.234666 20.2958 5.01727 20.2958 13.942L20.2655 17.625C20.2655 20.5501 20.2756 22.1087 20.2958 22.3009C20.5184 24.3292 21.0443 25.3434 21.8738 25.3434C22.7032 25.3434 24.1294 24.1904 26.1524 21.8845C28.1754 19.5573 29.1869 17.9026 29.1869 16.9204L29.0959 15.7675C29.0959 15.0415 29.3589 14.5291 29.8849 14.2302C30.4311 13.9313 31.5538 13.7818 33.2532 13.7818C37.1171 13.7818 39.0491 14.2195 39.0491 15.0949C39.0491 15.1163 37.2587 16.6429 33.678 19.6747C30.0973 22.7065 28.3069 24.8736 28.3069 26.176C28.3069 27.4785 30.7649 31.1615 35.6808 37.2252C36.7529 38.5489 37.9263 39.6912 39.2008 40.652C40.4955 41.6128 41.1429 42.2533 41.1429 42.5736C41.1429 43.6198 39.6458 44.1429 36.6518 44.1429H34.4366C32.4945 44.1429 31.0987 43.5557 30.249 42.3814L29.0352 39.2748C28.5294 37.9938 27.6899 36.4779 26.5166 34.7271C24.7161 32.0582 23.3303 30.7238 22.3593 30.7238Z" fill="white"/>
</g>
</svg>
