<svg width="119" height="119" viewBox="0 0 119 119" fill="none" xmlns="http://www.w3.org/2000/svg">
<mask id="mask0_32_18" style="mask-type:alpha" maskUnits="userSpaceOnUse" x="0" y="0" width="119" height="119">
<path d="M0 30C0 13.4315 13.4315 0 30 0H89C105.569 0 119 13.4315 119 30V89C119 105.569 105.569 119 89 119H30C13.4315 119 0 105.569 0 89V30Z" fill="#323234"/>
</mask>
<g mask="url(#mask0_32_18)">
<path d="M0 30C0 13.4315 13.4315 0 30 0H89C105.569 0 119 13.4315 119 30V89C119 105.569 105.569 119 89 119H30C13.4315 119 0 105.569 0 89V30Z" fill="#323234"/>
<path d="M52.1717 64.6889C49.2923 64.6889 47.8526 69.0729 47.8526 77.841C47.8526 80.9298 48.537 83.9438 49.9059 86.8832L51.8177 90.3207C52.4785 91.5661 52.8089 92.4629 52.8089 93.0109C52.8089 94.8044 48.065 95.7011 38.5771 95.7011C29.0892 95.7011 24.3453 94.8542 24.3453 93.1603C24.3453 92.712 25.1242 91.3669 26.6819 89.125C28.2868 86.8333 29.4433 84.168 30.1513 81.1291C30.9066 78.0403 31.2842 70.8913 31.2842 59.6821L31.355 56.8424C31.4494 54.3016 31.4966 52.4085 31.4966 51.163L31.6382 45.4837L31.709 39.7296V28.1467C31.709 13.7491 31.4494 5.25498 30.9302 2.6644C30.4581 0.024005 29.5849 -1.96875 28.3104 -3.31386L26.7527 -4.58424L25.0533 -5.70516C23.6844 -6.75136 23 -7.72283 23 -8.61956C23 -9.56612 23.5664 -10.3881 24.6993 -11.0856C27.9091 -13.0285 32.8655 -14 39.5684 -14H41.9758C44.6663 -14 46.3421 -11.9823 47.0029 -7.94701C47.2389 -6.45245 47.3569 4.70697 47.3569 25.5313L47.2861 34.125C47.2861 40.9502 47.3097 44.587 47.3569 45.0353C47.8762 49.7681 49.1035 52.1345 51.0388 52.1345C52.9741 52.1345 56.302 49.4443 61.0223 44.0639C65.7426 38.6336 68.1028 34.7726 68.1028 32.481L67.8904 29.7908C67.8904 28.0969 68.504 26.9013 69.7313 26.2038C71.0058 25.5063 73.6256 25.1576 77.5907 25.1576C86.6065 25.1576 91.1144 26.1789 91.1144 28.2215C91.1144 28.2713 86.937 31.8333 78.582 38.9076C70.227 45.9819 66.0495 51.0385 66.0495 54.0774C66.0495 57.1164 71.7847 65.7102 83.2551 79.8587C85.7569 82.9475 88.4947 85.6128 91.4685 87.8546C94.4895 90.0965 96 91.591 96 92.3383C96 94.7794 92.5069 96 85.5209 96H80.3521C75.8206 96 72.5635 94.63 70.581 91.89L67.7488 84.6413C66.5687 81.6522 64.6098 78.115 61.872 74.0299C57.6709 67.8025 54.4374 64.6889 52.1717 64.6889Z" fill="white"/>
</g>
</svg>
